<svg version="1.1" xmlns="http://www.w3.org/2000/svg" width="136px" height="136px" viewBox="0 0 136 136"  preserveAspectRatio="xMinYMin meet"><rect width="100%" height="100%" fill="white" cx="0" cy="0"/><path d="M2,2l4,0 0,4 -4,0 0,-4z M6,2l4,0 0,4 -4,0 0,-4z M10,2l4,0 0,4 -4,0 0,-4z M14,2l4,0 0,4 -4,0 0,-4z M18,2l4,0 0,4 -4,0 0,-4z M22,2l4,0 0,4 -4,0 0,-4z M26,2l4,0 0,4 -4,0 0,-4z M34,2l4,0 0,4 -4,0 0,-4z M38,2l4,0 0,4 -4,0 0,-4z M42,2l4,0 0,4 -4,0 0,-4z M50,2l4,0 0,4 -4,0 0,-4z M66,2l4,0 0,4 -4,0 0,-4z M70,2l4,0 0,4 -4,0 0,-4z M74,2l4,0 0,4 -4,0 0,-4z M94,2l4,0 0,4 -4,0 0,-4z M106,2l4,0 0,4 -4,0 0,-4z M110,2l4,0 0,4 -4,0 0,-4z M114,2l4,0 0,4 -4,0 0,-4z M118,2l4,0 0,4 -4,0 0,-4z M122,2l4,0 0,4 -4,0 0,-4z M126,2l4,0 0,4 -4,0 0,-4z M130,2l4,0 0,4 -4,0 0,-4z M2,6l4,0 0,4 -4,0 0,-4z M26,6l4,0 0,4 -4,0 0,-4z M34,6l4,0 0,4 -4,0 0,-4z M38,6l4,0 0,4 -4,0 0,-4z M42,6l4,0 0,4 -4,0 0,-4z M74,6l4,0 0,4 -4,0 0,-4z M78,6l4,0 0,4 -4,0 0,-4z M90,6l4,0 0,4 -4,0 0,-4z M98,6l4,0 0,4 -4,0 0,-4z M106,6l4,0 0,4 -4,0 0,-4z M130,6l4,0 0,4 -4,0 0,-4z M2,10l4,0 0,4 -4,0 0,-4z M10,10l4,0 0,4 -4,0 0,-4z M14,10l4,0 0,4 -4,0 0,-4z M18,10l4,0 0,4 -4,0 0,-4z M26,10l4,0 0,4 -4,0 0,-4z M34,10l4,0 0,4 -4,0 0,-4z M42,10l4,0 0,4 -4,0 0,-4z M46,10l4,0 0,4 -4,0 0,-4z M58,10l4,0 0,4 -4,0 0,-4z M70,10l4,0 0,4 -4,0 0,-4z M74,10l4,0 0,4 -4,0 0,-4z M78,10l4,0 0,4 -4,0 0,-4z M86,10l4,0 0,4 -4,0 0,-4z M106,10l4,0 0,4 -4,0 0,-4z M114,10l4,0 0,4 -4,0 0,-4z M118,10l4,0 0,4 -4,0 0,-4z M122,10l4,0 0,4 -4,0 0,-4z M130,10l4,0 0,4 -4,0 0,-4z M2,14l4,0 0,4 -4,0 0,-4z M10,14l4,0 0,4 -4,0 0,-4z M14,14l4,0 0,4 -4,0 0,-4z M18,14l4,0 0,4 -4,0 0,-4z M26,14l4,0 0,4 -4,0 0,-4z M34,14l4,0 0,4 -4,0 0,-4z M38,14l4,0 0,4 -4,0 0,-4z M46,14l4,0 0,4 -4,0 0,-4z M58,14l4,0 0,4 -4,0 0,-4z M62,14l4,0 0,4 -4,0 0,-4z M82,14l4,0 0,4 -4,0 0,-4z M94,14l4,0 0,4 -4,0 0,-4z M106,14l4,0 0,4 -4,0 0,-4z M114,14l4,0 0,4 -4,0 0,-4z M118,14l4,0 0,4 -4,0 0,-4z M122,14l4,0 0,4 -4,0 0,-4z M130,14l4,0 0,4 -4,0 0,-4z M2,18l4,0 0,4 -4,0 0,-4z M10,18l4,0 0,4 -4,0 0,-4z M14,18l4,0 0,4 -4,0 0,-4z M18,18l4,0 0,4 -4,0 0,-4z M26,18l4,0 0,4 -4,0 0,-4z M66,18l4,0 0,4 -4,0 0,-4z M70,18l4,0 0,4 -4,0 0,-4z M94,18l4,0 0,4 -4,0 0,-4z M106,18l4,0 0,4 -4,0 0,-4z M114,18l4,0 0,4 -4,0 0,-4z M118,18l4,0 0,4 -4,0 0,-4z M122,18l4,0 0,4 -4,0 0,-4z M130,18l4,0 0,4 -4,0 0,-4z M2,22l4,0 0,4 -4,0 0,-4z M26,22l4,0 0,4 -4,0 0,-4z M34,22l4,0 0,4 -4,0 0,-4z M46,22l4,0 0,4 -4,0 0,-4z M50,22l4,0 0,4 -4,0 0,-4z M78,22l4,0 0,4 -4,0 0,-4z M90,22l4,0 0,4 -4,0 0,-4z M106,22l4,0 0,4 -4,0 0,-4z M130,22l4,0 0,4 -4,0 0,-4z M2,26l4,0 0,4 -4,0 0,-4z M6,26l4,0 0,4 -4,0 0,-4z M10,26l4,0 0,4 -4,0 0,-4z M14,26l4,0 0,4 -4,0 0,-4z M18,26l4,0 0,4 -4,0 0,-4z M22,26l4,0 0,4 -4,0 0,-4z M26,26l4,0 0,4 -4,0 0,-4z M34,26l4,0 0,4 -4,0 0,-4z M42,26l4,0 0,4 -4,0 0,-4z M50,26l4,0 0,4 -4,0 0,-4z M58,26l4,0 0,4 -4,0 0,-4z M66,26l4,0 0,4 -4,0 0,-4z M74,26l4,0 0,4 -4,0 0,-4z M82,26l4,0 0,4 -4,0 0,-4z M90,26l4,0 0,4 -4,0 0,-4z M98,26l4,0 0,4 -4,0 0,-4z M106,26l4,0 0,4 -4,0 0,-4z M110,26l4,0 0,4 -4,0 0,-4z M114,26l4,0 0,4 -4,0 0,-4z M118,26l4,0 0,4 -4,0 0,-4z M122,26l4,0 0,4 -4,0 0,-4z M126,26l4,0 0,4 -4,0 0,-4z M130,26l4,0 0,4 -4,0 0,-4z M38,30l4,0 0,4 -4,0 0,-4z M50,30l4,0 0,4 -4,0 0,-4z M58,30l4,0 0,4 -4,0 0,-4z M66,30l4,0 0,4 -4,0 0,-4z M70,30l4,0 0,4 -4,0 0,-4z M74,30l4,0 0,4 -4,0 0,-4z M78,30l4,0 0,4 -4,0 0,-4z M82,30l4,0 0,4 -4,0 0,-4z M86,30l4,0 0,4 -4,0 0,-4z M90,30l4,0 0,4 -4,0 0,-4z M94,30l4,0 0,4 -4,0 0,-4z M98,30l4,0 0,4 -4,0 0,-4z M2,34l4,0 0,4 -4,0 0,-4z M6,34l4,0 0,4 -4,0 0,-4z M18,34l4,0 0,4 -4,0 0,-4z M22,34l4,0 0,4 -4,0 0,-4z M26,34l4,0 0,4 -4,0 0,-4z M46,34l4,0 0,4 -4,0 0,-4z M54,34l4,0 0,4 -4,0 0,-4z M58,34l4,0 0,4 -4,0 0,-4z M66,34l4,0 0,4 -4,0 0,-4z M86,34l4,0 0,4 -4,0 0,-4z M94,34l4,0 0,4 -4,0 0,-4z M98,34l4,0 0,4 -4,0 0,-4z M110,34l4,0 0,4 -4,0 0,-4z M118,34l4,0 0,4 -4,0 0,-4z M122,34l4,0 0,4 -4,0 0,-4z M126,34l4,0 0,4 -4,0 0,-4z M130,34l4,0 0,4 -4,0 0,-4z M6,38l4,0 0,4 -4,0 0,-4z M14,38l4,0 0,4 -4,0 0,-4z M22,38l4,0 0,4 -4,0 0,-4z M30,38l4,0 0,4 -4,0 0,-4z M34,38l4,0 0,4 -4,0 0,-4z M38,38l4,0 0,4 -4,0 0,-4z M42,38l4,0 0,4 -4,0 0,-4z M50,38l4,0 0,4 -4,0 0,-4z M58,38l4,0 0,4 -4,0 0,-4z M66,38l4,0 0,4 -4,0 0,-4z M74,38l4,0 0,4 -4,0 0,-4z M82,38l4,0 0,4 -4,0 0,-4z M86,38l4,0 0,4 -4,0 0,-4z M94,38l4,0 0,4 -4,0 0,-4z M110,38l4,0 0,4 -4,0 0,-4z M122,38l4,0 0,4 -4,0 0,-4z M2,42l4,0 0,4 -4,0 0,-4z M22,42l4,0 0,4 -4,0 0,-4z M26,42l4,0 0,4 -4,0 0,-4z M30,42l4,0 0,4 -4,0 0,-4z M46,42l4,0 0,4 -4,0 0,-4z M50,42l4,0 0,4 -4,0 0,-4z M54,42l4,0 0,4 -4,0 0,-4z M58,42l4,0 0,4 -4,0 0,-4z M62,42l4,0 0,4 -4,0 0,-4z M70,42l4,0 0,4 -4,0 0,-4z M74,42l4,0 0,4 -4,0 0,-4z M82,42l4,0 0,4 -4,0 0,-4z M94,42l4,0 0,4 -4,0 0,-4z M98,42l4,0 0,4 -4,0 0,-4z M102,42l4,0 0,4 -4,0 0,-4z M114,42l4,0 0,4 -4,0 0,-4z M122,42l4,0 0,4 -4,0 0,-4z M126,42l4,0 0,4 -4,0 0,-4z M2,46l4,0 0,4 -4,0 0,-4z M22,46l4,0 0,4 -4,0 0,-4z M30,46l4,0 0,4 -4,0 0,-4z M42,46l4,0 0,4 -4,0 0,-4z M46,46l4,0 0,4 -4,0 0,-4z M54,46l4,0 0,4 -4,0 0,-4z M62,46l4,0 0,4 -4,0 0,-4z M70,46l4,0 0,4 -4,0 0,-4z M86,46l4,0 0,4 -4,0 0,-4z M94,46l4,0 0,4 -4,0 0,-4z M98,46l4,0 0,4 -4,0 0,-4z M114,46l4,0 0,4 -4,0 0,-4z M118,46l4,0 0,4 -4,0 0,-4z M10,50l4,0 0,4 -4,0 0,-4z M22,50l4,0 0,4 -4,0 0,-4z M26,50l4,0 0,4 -4,0 0,-4z M34,50l4,0 0,4 -4,0 0,-4z M42,50l4,0 0,4 -4,0 0,-4z M50,50l4,0 0,4 -4,0 0,-4z M54,50l4,0 0,4 -4,0 0,-4z M66,50l4,0 0,4 -4,0 0,-4z M78,50l4,0 0,4 -4,0 0,-4z M86,50l4,0 0,4 -4,0 0,-4z M90,50l4,0 0,4 -4,0 0,-4z M98,50l4,0 0,4 -4,0 0,-4z M106,50l4,0 0,4 -4,0 0,-4z M110,50l4,0 0,4 -4,0 0,-4z M114,50l4,0 0,4 -4,0 0,-4z M118,50l4,0 0,4 -4,0 0,-4z M126,50l4,0 0,4 -4,0 0,-4z M130,50l4,0 0,4 -4,0 0,-4z M6,54l4,0 0,4 -4,0 0,-4z M54,54l4,0 0,4 -4,0 0,-4z M58,54l4,0 0,4 -4,0 0,-4z M62,54l4,0 0,4 -4,0 0,-4z M78,54l4,0 0,4 -4,0 0,-4z M94,54l4,0 0,4 -4,0 0,-4z M110,54l4,0 0,4 -4,0 0,-4z M10,58l4,0 0,4 -4,0 0,-4z M26,58l4,0 0,4 -4,0 0,-4z M34,58l4,0 0,4 -4,0 0,-4z M62,58l4,0 0,4 -4,0 0,-4z M74,58l4,0 0,4 -4,0 0,-4z M94,58l4,0 0,4 -4,0 0,-4z M98,58l4,0 0,4 -4,0 0,-4z M102,58l4,0 0,4 -4,0 0,-4z M118,58l4,0 0,4 -4,0 0,-4z M122,58l4,0 0,4 -4,0 0,-4z M126,58l4,0 0,4 -4,0 0,-4z M30,62l4,0 0,4 -4,0 0,-4z M42,62l4,0 0,4 -4,0 0,-4z M50,62l4,0 0,4 -4,0 0,-4z M58,62l4,0 0,4 -4,0 0,-4z M66,62l4,0 0,4 -4,0 0,-4z M70,62l4,0 0,4 -4,0 0,-4z M74,62l4,0 0,4 -4,0 0,-4z M78,62l4,0 0,4 -4,0 0,-4z M86,62l4,0 0,4 -4,0 0,-4z M98,62l4,0 0,4 -4,0 0,-4z M102,62l4,0 0,4 -4,0 0,-4z M118,62l4,0 0,4 -4,0 0,-4z M6,66l4,0 0,4 -4,0 0,-4z M10,66l4,0 0,4 -4,0 0,-4z M18,66l4,0 0,4 -4,0 0,-4z M26,66l4,0 0,4 -4,0 0,-4z M30,66l4,0 0,4 -4,0 0,-4z M38,66l4,0 0,4 -4,0 0,-4z M42,66l4,0 0,4 -4,0 0,-4z M46,66l4,0 0,4 -4,0 0,-4z M54,66l4,0 0,4 -4,0 0,-4z M58,66l4,0 0,4 -4,0 0,-4z M66,66l4,0 0,4 -4,0 0,-4z M70,66l4,0 0,4 -4,0 0,-4z M78,66l4,0 0,4 -4,0 0,-4z M90,66l4,0 0,4 -4,0 0,-4z M94,66l4,0 0,4 -4,0 0,-4z M98,66l4,0 0,4 -4,0 0,-4z M106,66l4,0 0,4 -4,0 0,-4z M114,66l4,0 0,4 -4,0 0,-4z M130,66l4,0 0,4 -4,0 0,-4z M6,70l4,0 0,4 -4,0 0,-4z M10,70l4,0 0,4 -4,0 0,-4z M38,70l4,0 0,4 -4,0 0,-4z M50,70l4,0 0,4 -4,0 0,-4z M62,70l4,0 0,4 -4,0 0,-4z M70,70l4,0 0,4 -4,0 0,-4z M74,70l4,0 0,4 -4,0 0,-4z M90,70l4,0 0,4 -4,0 0,-4z M94,70l4,0 0,4 -4,0 0,-4z M98,70l4,0 0,4 -4,0 0,-4z M102,70l4,0 0,4 -4,0 0,-4z M110,70l4,0 0,4 -4,0 0,-4z M118,70l4,0 0,4 -4,0 0,-4z M2,74l4,0 0,4 -4,0 0,-4z M6,74l4,0 0,4 -4,0 0,-4z M14,74l4,0 0,4 -4,0 0,-4z M26,74l4,0 0,4 -4,0 0,-4z M30,74l4,0 0,4 -4,0 0,-4z M34,74l4,0 0,4 -4,0 0,-4z M42,74l4,0 0,4 -4,0 0,-4z M46,74l4,0 0,4 -4,0 0,-4z M50,74l4,0 0,4 -4,0 0,-4z M54,74l4,0 0,4 -4,0 0,-4z M58,74l4,0 0,4 -4,0 0,-4z M62,74l4,0 0,4 -4,0 0,-4z M70,74l4,0 0,4 -4,0 0,-4z M82,74l4,0 0,4 -4,0 0,-4z M86,74l4,0 0,4 -4,0 0,-4z M90,74l4,0 0,4 -4,0 0,-4z M94,74l4,0 0,4 -4,0 0,-4z M98,74l4,0 0,4 -4,0 0,-4z M114,74l4,0 0,4 -4,0 0,-4z M122,74l4,0 0,4 -4,0 0,-4z M126,74l4,0 0,4 -4,0 0,-4z M2,78l4,0 0,4 -4,0 0,-4z M6,78l4,0 0,4 -4,0 0,-4z M22,78l4,0 0,4 -4,0 0,-4z M38,78l4,0 0,4 -4,0 0,-4z M46,78l4,0 0,4 -4,0 0,-4z M54,78l4,0 0,4 -4,0 0,-4z M62,78l4,0 0,4 -4,0 0,-4z M66,78l4,0 0,4 -4,0 0,-4z M70,78l4,0 0,4 -4,0 0,-4z M74,78l4,0 0,4 -4,0 0,-4z M78,78l4,0 0,4 -4,0 0,-4z M82,78l4,0 0,4 -4,0 0,-4z M86,78l4,0 0,4 -4,0 0,-4z M94,78l4,0 0,4 -4,0 0,-4z M98,78l4,0 0,4 -4,0 0,-4z M106,78l4,0 0,4 -4,0 0,-4z M110,78l4,0 0,4 -4,0 0,-4z M118,78l4,0 0,4 -4,0 0,-4z M6,82l4,0 0,4 -4,0 0,-4z M14,82l4,0 0,4 -4,0 0,-4z M18,82l4,0 0,4 -4,0 0,-4z M22,82l4,0 0,4 -4,0 0,-4z M26,82l4,0 0,4 -4,0 0,-4z M42,82l4,0 0,4 -4,0 0,-4z M50,82l4,0 0,4 -4,0 0,-4z M54,82l4,0 0,4 -4,0 0,-4z M78,82l4,0 0,4 -4,0 0,-4z M90,82l4,0 0,4 -4,0 0,-4z M94,82l4,0 0,4 -4,0 0,-4z M98,82l4,0 0,4 -4,0 0,-4z M106,82l4,0 0,4 -4,0 0,-4z M110,82l4,0 0,4 -4,0 0,-4z M114,82l4,0 0,4 -4,0 0,-4z M130,82l4,0 0,4 -4,0 0,-4z M2,86l4,0 0,4 -4,0 0,-4z M30,86l4,0 0,4 -4,0 0,-4z M34,86l4,0 0,4 -4,0 0,-4z M38,86l4,0 0,4 -4,0 0,-4z M54,86l4,0 0,4 -4,0 0,-4z M58,86l4,0 0,4 -4,0 0,-4z M62,86l4,0 0,4 -4,0 0,-4z M66,86l4,0 0,4 -4,0 0,-4z M70,86l4,0 0,4 -4,0 0,-4z M74,86l4,0 0,4 -4,0 0,-4z M82,86l4,0 0,4 -4,0 0,-4z M90,86l4,0 0,4 -4,0 0,-4z M94,86l4,0 0,4 -4,0 0,-4z M102,86l4,0 0,4 -4,0 0,-4z M110,86l4,0 0,4 -4,0 0,-4z M118,86l4,0 0,4 -4,0 0,-4z M18,90l4,0 0,4 -4,0 0,-4z M26,90l4,0 0,4 -4,0 0,-4z M30,90l4,0 0,4 -4,0 0,-4z M34,90l4,0 0,4 -4,0 0,-4z M62,90l4,0 0,4 -4,0 0,-4z M70,90l4,0 0,4 -4,0 0,-4z M74,90l4,0 0,4 -4,0 0,-4z M86,90l4,0 0,4 -4,0 0,-4z M90,90l4,0 0,4 -4,0 0,-4z M94,90l4,0 0,4 -4,0 0,-4z M98,90l4,0 0,4 -4,0 0,-4z M102,90l4,0 0,4 -4,0 0,-4z M110,90l4,0 0,4 -4,0 0,-4z M122,90l4,0 0,4 -4,0 0,-4z M126,90l4,0 0,4 -4,0 0,-4z M10,94l4,0 0,4 -4,0 0,-4z M34,94l4,0 0,4 -4,0 0,-4z M50,94l4,0 0,4 -4,0 0,-4z M58,94l4,0 0,4 -4,0 0,-4z M70,94l4,0 0,4 -4,0 0,-4z M86,94l4,0 0,4 -4,0 0,-4z M90,94l4,0 0,4 -4,0 0,-4z M98,94l4,0 0,4 -4,0 0,-4z M102,94l4,0 0,4 -4,0 0,-4z M2,98l4,0 0,4 -4,0 0,-4z M6,98l4,0 0,4 -4,0 0,-4z M10,98l4,0 0,4 -4,0 0,-4z M14,98l4,0 0,4 -4,0 0,-4z M26,98l4,0 0,4 -4,0 0,-4z M34,98l4,0 0,4 -4,0 0,-4z M38,98l4,0 0,4 -4,0 0,-4z M42,98l4,0 0,4 -4,0 0,-4z M46,98l4,0 0,4 -4,0 0,-4z M54,98l4,0 0,4 -4,0 0,-4z M58,98l4,0 0,4 -4,0 0,-4z M62,98l4,0 0,4 -4,0 0,-4z M66,98l4,0 0,4 -4,0 0,-4z M82,98l4,0 0,4 -4,0 0,-4z M90,98l4,0 0,4 -4,0 0,-4z M94,98l4,0 0,4 -4,0 0,-4z M98,98l4,0 0,4 -4,0 0,-4z M102,98l4,0 0,4 -4,0 0,-4z M106,98l4,0 0,4 -4,0 0,-4z M110,98l4,0 0,4 -4,0 0,-4z M114,98l4,0 0,4 -4,0 0,-4z M118,98l4,0 0,4 -4,0 0,-4z M126,98l4,0 0,4 -4,0 0,-4z M34,102l4,0 0,4 -4,0 0,-4z M38,102l4,0 0,4 -4,0 0,-4z M42,102l4,0 0,4 -4,0 0,-4z M50,102l4,0 0,4 -4,0 0,-4z M66,102l4,0 0,4 -4,0 0,-4z M70,102l4,0 0,4 -4,0 0,-4z M86,102l4,0 0,4 -4,0 0,-4z M90,102l4,0 0,4 -4,0 0,-4z M98,102l4,0 0,4 -4,0 0,-4z M114,102l4,0 0,4 -4,0 0,-4z M118,102l4,0 0,4 -4,0 0,-4z M122,102l4,0 0,4 -4,0 0,-4z M126,102l4,0 0,4 -4,0 0,-4z M2,106l4,0 0,4 -4,0 0,-4z M6,106l4,0 0,4 -4,0 0,-4z M10,106l4,0 0,4 -4,0 0,-4z M14,106l4,0 0,4 -4,0 0,-4z M18,106l4,0 0,4 -4,0 0,-4z M22,106l4,0 0,4 -4,0 0,-4z M26,106l4,0 0,4 -4,0 0,-4z M42,106l4,0 0,4 -4,0 0,-4z M46,106l4,0 0,4 -4,0 0,-4z M50,106l4,0 0,4 -4,0 0,-4z M54,106l4,0 0,4 -4,0 0,-4z M58,106l4,0 0,4 -4,0 0,-4z M62,106l4,0 0,4 -4,0 0,-4z M74,106l4,0 0,4 -4,0 0,-4z M98,106l4,0 0,4 -4,0 0,-4z M106,106l4,0 0,4 -4,0 0,-4z M114,106l4,0 0,4 -4,0 0,-4z M122,106l4,0 0,4 -4,0 0,-4z M126,106l4,0 0,4 -4,0 0,-4z M2,110l4,0 0,4 -4,0 0,-4z M26,110l4,0 0,4 -4,0 0,-4z M34,110l4,0 0,4 -4,0 0,-4z M46,110l4,0 0,4 -4,0 0,-4z M54,110l4,0 0,4 -4,0 0,-4z M70,110l4,0 0,4 -4,0 0,-4z M74,110l4,0 0,4 -4,0 0,-4z M78,110l4,0 0,4 -4,0 0,-4z M86,110l4,0 0,4 -4,0 0,-4z M98,110l4,0 0,4 -4,0 0,-4z M114,110l4,0 0,4 -4,0 0,-4z M126,110l4,0 0,4 -4,0 0,-4z M2,114l4,0 0,4 -4,0 0,-4z M10,114l4,0 0,4 -4,0 0,-4z M14,114l4,0 0,4 -4,0 0,-4z M18,114l4,0 0,4 -4,0 0,-4z M26,114l4,0 0,4 -4,0 0,-4z M34,114l4,0 0,4 -4,0 0,-4z M38,114l4,0 0,4 -4,0 0,-4z M50,114l4,0 0,4 -4,0 0,-4z M54,114l4,0 0,4 -4,0 0,-4z M66,114l4,0 0,4 -4,0 0,-4z M78,114l4,0 0,4 -4,0 0,-4z M86,114l4,0 0,4 -4,0 0,-4z M90,114l4,0 0,4 -4,0 0,-4z M98,114l4,0 0,4 -4,0 0,-4z M102,114l4,0 0,4 -4,0 0,-4z M106,114l4,0 0,4 -4,0 0,-4z M110,114l4,0 0,4 -4,0 0,-4z M114,114l4,0 0,4 -4,0 0,-4z M118,114l4,0 0,4 -4,0 0,-4z M2,118l4,0 0,4 -4,0 0,-4z M10,118l4,0 0,4 -4,0 0,-4z M14,118l4,0 0,4 -4,0 0,-4z M18,118l4,0 0,4 -4,0 0,-4z M26,118l4,0 0,4 -4,0 0,-4z M42,118l4,0 0,4 -4,0 0,-4z M54,118l4,0 0,4 -4,0 0,-4z M58,118l4,0 0,4 -4,0 0,-4z M62,118l4,0 0,4 -4,0 0,-4z M70,118l4,0 0,4 -4,0 0,-4z M74,118l4,0 0,4 -4,0 0,-4z M94,118l4,0 0,4 -4,0 0,-4z M102,118l4,0 0,4 -4,0 0,-4z M106,118l4,0 0,4 -4,0 0,-4z M114,118l4,0 0,4 -4,0 0,-4z M118,118l4,0 0,4 -4,0 0,-4z M122,118l4,0 0,4 -4,0 0,-4z M2,122l4,0 0,4 -4,0 0,-4z M10,122l4,0 0,4 -4,0 0,-4z M14,122l4,0 0,4 -4,0 0,-4z M18,122l4,0 0,4 -4,0 0,-4z M26,122l4,0 0,4 -4,0 0,-4z M42,122l4,0 0,4 -4,0 0,-4z M62,122l4,0 0,4 -4,0 0,-4z M66,122l4,0 0,4 -4,0 0,-4z M94,122l4,0 0,4 -4,0 0,-4z M106,122l4,0 0,4 -4,0 0,-4z M110,122l4,0 0,4 -4,0 0,-4z M114,122l4,0 0,4 -4,0 0,-4z M122,122l4,0 0,4 -4,0 0,-4z M2,126l4,0 0,4 -4,0 0,-4z M26,126l4,0 0,4 -4,0 0,-4z M34,126l4,0 0,4 -4,0 0,-4z M38,126l4,0 0,4 -4,0 0,-4z M42,126l4,0 0,4 -4,0 0,-4z M50,126l4,0 0,4 -4,0 0,-4z M58,126l4,0 0,4 -4,0 0,-4z M66,126l4,0 0,4 -4,0 0,-4z M70,126l4,0 0,4 -4,0 0,-4z M78,126l4,0 0,4 -4,0 0,-4z M86,126l4,0 0,4 -4,0 0,-4z M94,126l4,0 0,4 -4,0 0,-4z M98,126l4,0 0,4 -4,0 0,-4z M102,126l4,0 0,4 -4,0 0,-4z M106,126l4,0 0,4 -4,0 0,-4z M2,130l4,0 0,4 -4,0 0,-4z M6,130l4,0 0,4 -4,0 0,-4z M10,130l4,0 0,4 -4,0 0,-4z M14,130l4,0 0,4 -4,0 0,-4z M18,130l4,0 0,4 -4,0 0,-4z M22,130l4,0 0,4 -4,0 0,-4z M26,130l4,0 0,4 -4,0 0,-4z M34,130l4,0 0,4 -4,0 0,-4z M38,130l4,0 0,4 -4,0 0,-4z M42,130l4,0 0,4 -4,0 0,-4z M46,130l4,0 0,4 -4,0 0,-4z M54,130l4,0 0,4 -4,0 0,-4z M58,130l4,0 0,4 -4,0 0,-4z M66,130l4,0 0,4 -4,0 0,-4z M70,130l4,0 0,4 -4,0 0,-4z M74,130l4,0 0,4 -4,0 0,-4z M82,130l4,0 0,4 -4,0 0,-4z M86,130l4,0 0,4 -4,0 0,-4z M90,130l4,0 0,4 -4,0 0,-4z M94,130l4,0 0,4 -4,0 0,-4z M98,130l4,0 0,4 -4,0 0,-4z M102,130l4,0 0,4 -4,0 0,-4z M110,130l4,0 0,4 -4,0 0,-4z M118,130l4,0 0,4 -4,0 0,-4z M130,130l4,0 0,4 -4,0 0,-4z " stroke="transparent" fill="black"/></svg>