<?xml version="1.0" encoding="UTF-8"?>
<svg id="Layer_2" xmlns="http://www.w3.org/2000/svg" viewBox="0 0 140 68">
  <defs>
    <style>
      .cls-1 {
        fill: none;
      }

      .cls-2 {
        fill: #fff;
      }
    </style>
  </defs>
  <g id="Layer_1-2" data-name="Layer_1">
    <g>
      <rect class="cls-1" width="140" height="68"/>
      <g>
        <g>
          <path class="cls-2" d="M40.39,44.83c1.76,0,2.71-1.17,2.71-2.81v-8.37h3.74v8.56c-.04,3.77-3.05,5.25-6.45,5.25s-6.41-1.48-6.45-5.25v-8.56h3.74v8.37c0,1.64.95,2.81,2.71,2.81Z"/>
          <path class="cls-2" d="M65.16,41.57c.01-1.47.9-2.79,2.38-2.79,1.72,0,2.39,1.18,2.39,2.79h-4.77ZM71.8,42.8v-.88c0-2.6-1.47-4.44-4.13-4.44-2.97,0-4.36,2.31-4.36,5.06s1.2,4.91,4.21,4.91c2.24,0,3.89-1.07,4.17-3.2h-1.87c-.21,1.37-.9,1.91-2.28,1.91-1.82,0-2.42-1.62-2.42-3.35h6.68Z"/>
          <rect class="cls-2" x="73.95" y="33.64" width="1.78" height="13.53"/>
          <polygon class="cls-2" points="24.25 47.17 27.99 47.17 27.99 36.27 32.17 36.27 32.17 33.64 20.06 33.64 20.06 36.27 24.25 36.27 24.25 47.17"/>
          <path class="cls-2" d="M33.23,27.05c-.91.29-1.85.06-1.85-1.17,0-1.86,4.37-3.43,4.97-5.06.15-.41.16-.74-.03-.73-.14,0-.03.21-.34.52-1.81,1.81-4.84,1.81-7.17,2.86-1.53.69-5.99,2.79-4.97,7.5.05.22.18.97.32.97.16,0,.16-.44.15-.98-.03-2.8,3.27-3.58,4.35-5.41.13-.22.35-.53.4-.38.03.07,0,.17-.03.37-.34,1.5-1.91,2.47-1.46,3.54.58,1.39,2.24.35,2.75-.54.14-.25.21-.4.31-.37.07.02.07.31.02.56-.27,1.62-.64,2.53-1.83,3.45-.38.29-.97.36-.89.58.02.06.28.05.48.03,3.15-.2,5.78-3.92,6.47-6.35.07-.17.1-.33.02-.39-.1-.07-.23.1-.37.22-.36.32-.85.65-1.31.79Z"/>
          <g>
            <path class="cls-2" d="M95.23,33.64c1.15,0,1.8.59,1.8,1.75s-.65,1.75-1.8,1.75h-.95v-3.51h.95ZM95.31,36.86c.98,0,1.39-.58,1.39-1.46,0-1.04-.61-1.49-1.6-1.46h-.49v2.92h.71Z"/>
            <path class="cls-2" d="M97.76,36c0,.52.25.96.84.96.34,0,.63-.25.7-.58h.31c-.15.58-.51.85-1.1.85-.73,0-1.07-.63-1.07-1.29s.36-1.29,1.09-1.29c.81,0,1.11.6,1.11,1.36h-1.88ZM99.33,35.73c-.03-.47-.29-.83-.79-.83-.48,0-.73.4-.77.83h1.56Z"/>
          </g>
          <g>
            <path class="cls-2" d="M100.46,37.15h-.29v-3.51h.29v3.51Z"/>
            <path class="cls-2" d="M101.39,37.15v-2.17h-.49v-.27h.49v-.52c0-.42.17-.61.59-.61.09,0,.19.03.28.05v.23c-.06,0-.12-.02-.18-.02-.4,0-.41.2-.39.55v.31h.55v.27h-.55v2.17h-.29Z"/>
          </g>
          <path class="cls-2" d="M102.91,34.98h-.48v-.27h.48v-.52l.29-.13v.65h.55v.27h-.55v1.63c0,.22.11.34.33.34.09,0,.18,0,.25-.03v.25c-.09.02-.2.04-.3.04-.62,0-.58-.39-.58-.72v-1.52Z"/>
          <g>
            <path class="cls-2" d="M94.6,38.65v2.27c.02.64.39,1.02.96,1.02s.94-.38.96-1.02v-2.27h.31v2.27c0,.75-.43,1.31-1.28,1.31s-1.27-.55-1.28-1.31v-2.27h.32Z"/>
            <path class="cls-2" d="M97.76,42.16h-.29v-1.89c0-.19-.01-.38-.02-.55h.3l.02.36h0c.17-.29.45-.43.76-.43.79,0,.86.7.86.99v1.53h-.29v-1.57c0-.42-.24-.67-.64-.67-.48,0-.7.4-.7.84v1.4Z"/>
          </g>
          <g>
            <path class="cls-2" d="M100.36,39.02h-.34v-.36h.34v.36ZM100.33,39.72v2.44h-.29v-2.44h.29Z"/>
            <path class="cls-2" d="M101.11,39.72l.84,2.04.81-2.04h.32l-.97,2.44h-.33l-.99-2.44h.32Z"/>
          </g>
          <g>
            <path class="cls-2" d="M103.58,41.01c0,.52.25.96.84.96.34,0,.63-.25.7-.58h.3c-.15.58-.51.85-1.1.85-.73,0-1.07-.63-1.07-1.29s.36-1.29,1.09-1.29c.81,0,1.11.6,1.11,1.36h-1.88ZM105.15,40.74c-.03-.47-.29-.83-.79-.83-.48,0-.73.4-.77.83h1.56Z"/>
            <path class="cls-2" d="M106.3,42.16h-.29v-1.89c0-.19-.02-.38-.02-.55h.3v.36h.02c.09-.25.31-.42.55-.43.1,0,.19,0,.29,0v.28c-.06,0-.12-.02-.18-.02-.43,0-.66.31-.67.78v1.47Z"/>
            <path class="cls-2" d="M108.34,39.65c.46,0,.85.16.89.67h-.32c-.03-.31-.3-.41-.6-.41-.27,0-.55.11-.55.39,0,.36.47.33,1.13.56.25.09.41.31.41.57,0,.55-.51.8-1.02.8-.42,0-.91-.2-.92-.74h.31c.02.36.34.47.67.47.31,0,.63-.15.63-.49s-.38-.41-.77-.5c-.38-.09-.77-.2-.77-.66,0-.51.46-.68.89-.68Z"/>
            <path class="cls-2" d="M110.18,39.02h-.34v-.36h.34v.36ZM110.15,39.72v2.44h-.29v-2.44h.29Z"/>
          </g>
          <g>
            <path class="cls-2" d="M111.15,39.99h-.48v-.27h.48v-.52l.29-.13v.65h.55v.27h-.55v1.63c0,.22.11.34.33.34.09,0,.18,0,.25-.03v.25c-.09.02-.2.04-.3.04-.62,0-.58-.39-.58-.72v-1.52Z"/>
            <path class="cls-2" d="M112.7,39.72l.82,2.04.81-2.04h.31l-1.34,3.37h-.32l.37-.93-1.01-2.44h.35Z"/>
          </g>
          <path class="cls-2" d="M118.52,40.94c0,.64-.36,1.29-1.13,1.29s-1.13-.65-1.13-1.29.36-1.29,1.13-1.29,1.13.65,1.13,1.29ZM117.38,39.92c-.59,0-.82.57-.82,1.03s.23,1.03.82,1.03.82-.57.82-1.03-.23-1.03-.82-1.03Z"/>
          <path class="cls-2" d="M119.2,42.16v-2.17h-.49v-.27h.49v-.52c0-.42.17-.61.59-.61.09,0,.19.03.28.05v.23c-.06,0-.12-.02-.18-.02-.4,0-.41.2-.39.55v.31h.55v.27h-.55v2.17h-.29Z"/>
          <g>
            <path class="cls-2" d="M95.42,43.95h-1.13v-.29h2.56v.29h-1.11v3.22h-.32v-3.22Z"/>
            <path class="cls-2" d="M96.82,46.02c0,.52.25.96.84.96.34,0,.63-.25.7-.58h.3c-.15.58-.51.85-1.1.85-.73,0-1.07-.63-1.07-1.29s.36-1.29,1.09-1.29c.81,0,1.11.6,1.11,1.36h-1.88ZM98.38,45.75c-.03-.47-.29-.83-.79-.83-.48,0-.73.4-.77.83h1.56Z"/>
          </g>
          <g>
            <path class="cls-2" d="M100.83,45.48c-.02-.37-.26-.55-.66-.55-.45,0-.72.47-.72,1.02s.28,1.03.72,1.03c.38,0,.64-.23.66-.57h.31c-.08.56-.4.84-.95.84-.73,0-1.07-.63-1.07-1.29s.36-1.29,1.09-1.29c.5,0,.91.3.93.82h-.31Z"/>
            <path class="cls-2" d="M101.91,45.1h0c.17-.3.45-.44.76-.44.79,0,.86.7.86.99v1.53h-.29v-1.57c0-.42-.24-.67-.64-.67-.48,0-.7.4-.7.84v1.4h-.29v-3.51h.29v1.44Z"/>
          </g>
          <g>
            <path class="cls-2" d="M104.41,47.17h-.29v-1.89c0-.19-.01-.38-.02-.55h.3v.36s.02,0,.02,0c.17-.3.45-.44.76-.44.79,0,.86.7.86.99v1.53h-.29v-1.57c0-.42-.24-.67-.64-.67-.48,0-.7.4-.7.84v1.4Z"/>
            <path class="cls-2" d="M108.84,45.95c0,.64-.36,1.29-1.13,1.29s-1.13-.65-1.13-1.29.36-1.29,1.13-1.29,1.13.65,1.13,1.29ZM107.71,44.93c-.59,0-.82.57-.82,1.03s.23,1.03.82,1.03.82-.57.82-1.03-.23-1.03-.82-1.03Z"/>
          </g>
          <g>
            <path class="cls-2" d="M109.63,47.17h-.29v-3.51h.29v3.51Z"/>
            <path class="cls-2" d="M112.41,45.95c0,.64-.36,1.29-1.13,1.29s-1.13-.65-1.13-1.29.36-1.29,1.13-1.29,1.13.65,1.13,1.29ZM111.27,44.93c-.59,0-.82.57-.82,1.03s.23,1.03.82,1.03.82-.57.82-1.03-.23-1.03-.82-1.03Z"/>
          </g>
          <g>
            <path class="cls-2" d="M114.69,44.73h.3c-.01.16-.02.36-.02.55v1.46c0,.49.02,1-.51,1.25-.19.09-.32.11-.55.11-.44,0-.96-.15-.96-.66h.32c.03.29.38.39.69.39.38,0,.73-.27.74-.67v-.46h0c-.14.29-.48.46-.79.46-.73,0-1.05-.56-1.05-1.23s.3-1.27,1.04-1.27c.35,0,.61.17.8.45v-.02s.02-.36.02-.36ZM113.9,44.93c-.53,0-.75.53-.75.98s.23.99.76.99.77-.52.77-1-.26-.97-.78-.97Z"/>
            <path class="cls-2" d="M115.71,44.73l.82,2.04.81-2.04h.31l-1.34,3.37h-.32l.37-.93-1.01-2.44h.35Z"/>
          </g>
        </g>
        <path class="cls-2" d="M81.3,47.17v-8.17h2.17v-1.24h-2.17v-1.52c0-1.09.52-1.27,1.53-1.27.3,0,.6.04.9.06v-1.48c-.42-.09-.84-.19-1.27-.19-1.68,0-2.94.85-2.94,2.65v1.76h-1.83v1.24h1.83v8.17h1.78Z"/>
        <path class="cls-2" d="M84.49,37.76v1.24h1.61v5.99c0,1.25.02,2.45,2.66,2.45.41,0,.8-.04,1.22-.11v-1.37c-.29.07-.65.11-.94.11-.64,0-1.16-.32-1.16-.99v-6.09h2.17v-1.24h-2.17v-2.57l-1.78.56v2.01h-1.61Z"/>
        <path class="cls-2" d="M50.58,47.17h4.64c5.77,0,6.38-4.9,6.38-6.76s-.61-6.77-6.38-6.77h-4.64v13.53ZM52.45,35.25h2.76c3.12,0,4.41,2.36,4.41,5.15s-1.29,5.15-4.41,5.15h-2.76v-10.31Z"/>
      </g>
    </g>
  </g>
</svg>
